<svg xmlns="http://www.w3.org/2000/svg" viewBox="0 0 400 400" width="400" height="400"><defs><filter id="organic"><feTurbulence type="fractalNoise" baseFrequency="0.015" numOctaves="3" seed="44925" result="turb"/><feDisplacementMap in="SourceGraphic" in2="turb" scale="8" xChannelSelector="R" yChannelSelector="G"/></filter><filter id="glow"><feGaussianBlur stdDeviation="6" result="blur"/></filter><filter id="soft"><feGaussianBlur stdDeviation="3" result="blur"/></filter><linearGradient id="bgGrad" x1="0%" y1="0%" x2="100%" y2="100%"><stop offset="0%" stop-color="hsl(287,77%,36%)" stop-opacity="1"/><stop offset="50%" stop-color="hsl(77,68%,47%)" stop-opacity="1"/><stop offset="100%" stop-color="hsl(137,73%,39%)" stop-opacity="1"/></linearGradient><radialGradient id="glowGrad" cx="200" cy="200" r="180" gradientUnits="userSpaceOnUse"><stop offset="0%" stop-color="hsl(287,77%,76%)" stop-opacity="0.4"/><stop offset="40%" stop-color="hsl(77,68%,67%)" stop-opacity="0.2"/><stop offset="100%" stop-color="hsl(137,73%,46%)" stop-opacity="0"/></radialGradient><radialGradient id="coreGrad" cx="200" cy="200" r="120" gradientUnits="userSpaceOnUse"><stop offset="0%" stop-color="hsl(287,77%,71%)" stop-opacity="0.9"/><stop offset="60%" stop-color="hsl(77,68%,67%)" stop-opacity="0.6"/><stop offset="100%" stop-color="hsl(287,77%,56%)" stop-opacity="0.3"/></radialGradient></defs><rect x="0" y="0" width="400" height="400" fill="url(#bgGrad)" /><rect x="0" y="0" width="400" height="400" fill="hsl(287,77%,31%)" filter="url(#organic)" opacity="0.3"/><g><polygon points="284,311 146,328 62,216 116,89 254,72 338,184" fill="hsl(287,77%,61%)" opacity="0.4" stroke="hsl(287,77%,76%)" stroke-width="1"/><polygon points="213,310 111,267 98,157 187,90 289,133 302,243" fill="hsl(77,68%,67%)" opacity="0.5" stroke="hsl(77,68%,82%)" stroke-width="1"/><polygon points="168,277 117,210 150,134 232,123 283,190 250,266" fill="hsl(137,73%,61%)" opacity="0.6" stroke="hsl(137,73%,76%)" stroke-width="1"/><circle cx="200" cy="200" r="20" fill="url(#coreGrad)" filter="url(#glow)"/></g><g><circle cx="166" cy="282" r="5" fill="hsl(287,77%,81%)" opacity="0.6"/><polygon points="234,293 238,297 234,301 230,297" fill="hsl(287,77%,86%)" opacity="0.5"/><circle cx="354" cy="96" r="7" fill="none" stroke="hsl(317,63%,88%)" stroke-width="1" opacity="0.4"/><circle cx="261" cy="344" r="3" fill="hsl(107,48%,69%)" opacity="0.6"/><polygon points="72,150 78,156 72,162 66,156" fill="hsl(287,77%,86%)" opacity="0.5"/><circle cx="256" cy="105" r="4" fill="none" stroke="hsl(137,73%,76%)" stroke-width="1" opacity="0.4"/></g><circle cx="200" cy="200" r="160" fill="url(#glowGrad)" /><circle cx="190" cy="176" r="80" fill="hsl(317,63%,83%)" opacity="0.15" filter="url(#glow)"/><rect x="4" y="4" width="392" height="392" rx="12" ry="12" fill="none" stroke="hsl(107,48%,59%)" stroke-width="1.5" opacity="0.5"/><rect x="12" y="12" width="376" height="376" rx="8" ry="8" fill="none" stroke="hsl(107,48%,64%)" stroke-width="0.5" opacity="0.3"/><rect x="120" y="365" width="160" height="24" rx="12" fill="hsl(287,77%,36%)" opacity="0.7"/><text x="200" y="382" fill="hsl(107,48%,74%)" font-family="monospace" font-size="11" text-anchor="middle">clawwallet.claw</text></svg>