<svg xmlns="http://www.w3.org/2000/svg" viewBox="0 0 24 24" shape-rendering="crispEdges" width="480" height="480"><rect width="24" height="24" fill="#1a1a2e"/><rect x="10" y="17" width="1" height="1" fill="#6b8ea8"/><rect x="11" y="17" width="1" height="1" fill="#6b8ea8"/><rect x="12" y="17" width="1" height="1" fill="#6b8ea8"/><rect x="13" y="17" width="1" height="1" fill="#6b8ea8"/><rect x="10" y="18" width="1" height="1" fill="#4a6e85"/><rect x="11" y="18" width="1" height="1" fill="#4a6e85"/><rect x="12" y="18" width="1" height="1" fill="#4a6e85"/><rect x="13" y="18" width="1" height="1" fill="#4a6e85"/><rect x="10" y="3" width="1" height="1" fill="#4a6e85"/><rect x="11" y="3" width="1" height="1" fill="#4a6e85"/><rect x="12" y="3" width="1" height="1" fill="#4a6e85"/><rect x="13" y="3" width="1" height="1" fill="#4a6e85"/><rect x="9" y="4" width="1" height="1" fill="#4a6e85"/><rect x="10" y="4" width="1" height="1" fill="#8eb0cc"/><rect x="11" y="4" width="1" height="1" fill="#6b8ea8"/><rect x="12" y="4" width="1" height="1" fill="#6b8ea8"/><rect x="13" y="4" width="1" height="1" fill="#6b8ea8"/><rect x="14" y="4" width="1" height="1" fill="#4a6e85"/><rect x="8" y="5" width="1" height="1" fill="#4a6e85"/><rect x="9" y="5" width="1" height="1" fill="#8eb0cc"/><rect x="10" y="5" width="1" height="1" fill="#6b8ea8"/><rect x="11" y="5" width="1" height="1" fill="#6b8ea8"/><rect x="12" y="5" width="1" height="1" fill="#6b8ea8"/><rect x="13" y="5" width="1" height="1" fill="#6b8ea8"/><rect x="14" y="5" width="1" height="1" fill="#6b8ea8"/><rect x="15" y="5" width="1" height="1" fill="#4a6e85"/><rect x="8" y="6" width="1" height="1" fill="#4a6e85"/><rect x="9" y="6" width="1" height="1" fill="#8eb0cc"/><rect x="10" y="6" width="1" height="1" fill="#6b8ea8"/><rect x="11" y="6" width="1" height="1" fill="#6b8ea8"/><rect x="12" y="6" width="1" height="1" fill="#6b8ea8"/><rect x="13" y="6" width="1" height="1" fill="#6b8ea8"/><rect x="14" y="6" width="1" height="1" fill="#6b8ea8"/><rect x="15" y="6" width="1" height="1" fill="#4a6e85"/><rect x="8" y="7" width="1" height="1" fill="#4a6e85"/><rect x="9" y="7" width="1" height="1" fill="#8eb0cc"/><rect x="10" y="7" width="1" height="1" fill="#6b8ea8"/><rect x="11" y="7" width="1" height="1" fill="#6b8ea8"/><rect x="12" y="7" width="1" height="1" fill="#6b8ea8"/><rect x="13" y="7" width="1" height="1" fill="#6b8ea8"/><rect x="14" y="7" width="1" height="1" fill="#6b8ea8"/><rect x="15" y="7" width="1" height="1" fill="#4a6e85"/><rect x="8" y="8" width="1" height="1" fill="#4a6e85"/><rect x="9" y="8" width="1" height="1" fill="#8eb0cc"/><rect x="10" y="8" width="1" height="1" fill="#6b8ea8"/><rect x="11" y="8" width="1" height="1" fill="#6b8ea8"/><rect x="12" y="8" width="1" height="1" fill="#6b8ea8"/><rect x="13" y="8" width="1" height="1" fill="#6b8ea8"/><rect x="14" y="8" width="1" height="1" fill="#6b8ea8"/><rect x="15" y="8" width="1" height="1" fill="#4a6e85"/><rect x="8" y="9" width="1" height="1" fill="#4a6e85"/><rect x="9" y="9" width="1" height="1" fill="#8eb0cc"/><rect x="10" y="9" width="1" height="1" fill="#6b8ea8"/><rect x="11" y="9" width="1" height="1" fill="#6b8ea8"/><rect x="12" y="9" width="1" height="1" fill="#6b8ea8"/><rect x="13" y="9" width="1" height="1" fill="#6b8ea8"/><rect x="14" y="9" width="1" height="1" fill="#6b8ea8"/><rect x="15" y="9" width="1" height="1" fill="#4a6e85"/><rect x="8" y="10" width="1" height="1" fill="#4a6e85"/><rect x="9" y="10" width="1" height="1" fill="#8eb0cc"/><rect x="10" y="10" width="1" height="1" fill="#6b8ea8"/><rect x="11" y="10" width="1" height="1" fill="#6b8ea8"/><rect x="12" y="10" width="1" height="1" fill="#6b8ea8"/><rect x="13" y="10" width="1" height="1" fill="#6b8ea8"/><rect x="14" y="10" width="1" height="1" fill="#6b8ea8"/><rect x="15" y="10" width="1" height="1" fill="#4a6e85"/><rect x="8" y="11" width="1" height="1" fill="#4a6e85"/><rect x="9" y="11" width="1" height="1" fill="#8eb0cc"/><rect x="10" y="11" width="1" height="1" fill="#6b8ea8"/><rect x="11" y="11" width="1" height="1" fill="#6b8ea8"/><rect x="12" y="11" width="1" height="1" fill="#6b8ea8"/><rect x="13" y="11" width="1" height="1" fill="#6b8ea8"/><rect x="14" y="11" width="1" height="1" fill="#6b8ea8"/><rect x="15" y="11" width="1" height="1" fill="#4a6e85"/><rect x="8" y="12" width="1" height="1" fill="#4a6e85"/><rect x="9" y="12" width="1" height="1" fill="#8eb0cc"/><rect x="10" y="12" width="1" height="1" fill="#6b8ea8"/><rect x="11" y="12" width="1" height="1" fill="#6b8ea8"/><rect x="12" y="12" width="1" height="1" fill="#6b8ea8"/><rect x="13" y="12" width="1" height="1" fill="#6b8ea8"/><rect x="14" y="12" width="1" height="1" fill="#6b8ea8"/><rect x="15" y="12" width="1" height="1" fill="#4a6e85"/><rect x="8" y="13" width="1" height="1" fill="#4a6e85"/><rect x="9" y="13" width="1" height="1" fill="#8eb0cc"/><rect x="10" y="13" width="1" height="1" fill="#6b8ea8"/><rect x="11" y="13" width="1" height="1" fill="#6b8ea8"/><rect x="12" y="13" width="1" height="1" fill="#6b8ea8"/><rect x="13" y="13" width="1" height="1" fill="#6b8ea8"/><rect x="14" y="13" width="1" height="1" fill="#6b8ea8"/><rect x="15" y="13" width="1" height="1" fill="#4a6e85"/><rect x="8" y="14" width="1" height="1" fill="#4a6e85"/><rect x="9" y="14" width="1" height="1" fill="#8eb0cc"/><rect x="10" y="14" width="1" height="1" fill="#6b8ea8"/><rect x="11" y="14" width="1" height="1" fill="#6b8ea8"/><rect x="12" y="14" width="1" height="1" fill="#6b8ea8"/><rect x="13" y="14" width="1" height="1" fill="#6b8ea8"/><rect x="14" y="14" width="1" height="1" fill="#6b8ea8"/><rect x="15" y="14" width="1" height="1" fill="#4a6e85"/><rect x="9" y="15" width="1" height="1" fill="#4a6e85"/><rect x="10" y="15" width="1" height="1" fill="#6b8ea8"/><rect x="11" y="15" width="1" height="1" fill="#6b8ea8"/><rect x="12" y="15" width="1" height="1" fill="#6b8ea8"/><rect x="13" y="15" width="1" height="1" fill="#6b8ea8"/><rect x="14" y="15" width="1" height="1" fill="#4a6e85"/><rect x="10" y="16" width="1" height="1" fill="#4a6e85"/><rect x="11" y="16" width="1" height="1" fill="#4a6e85"/><rect x="12" y="16" width="1" height="1" fill="#4a6e85"/><rect x="13" y="16" width="1" height="1" fill="#4a6e85"/><rect x="9" y="8" width="1" height="1" fill="#ff4444"/><rect x="10" y="8" width="1" height="1" fill="#ff4444"/><rect x="11" y="8" width="1" height="1" fill="#ff4444"/><rect x="12" y="8" width="1" height="1" fill="#ff4444"/><rect x="13" y="8" width="1" height="1" fill="#ff4444"/><rect x="10" y="13" width="1" height="1" fill="#00aaff"/><rect x="11" y="14" width="1" height="1" fill="#00aaff"/><rect x="12" y="13" width="1" height="1" fill="#00aaff"/><rect x="13" y="14" width="1" height="1" fill="#00aaff"/><rect x="12" y="0" width="1" height="1" fill="#ffff00"/><rect x="11" y="1" width="1" height="1" fill="#ffff00"/><rect x="12" y="1" width="1" height="1" fill="#ffff00"/><rect x="10" y="2" width="1" height="1" fill="#ffff00"/><rect x="11" y="2" width="1" height="1" fill="#ffff00"/><rect x="11" y="3" width="1" height="1" fill="#ffff00"/><rect x="12" y="3" width="1" height="1" fill="#ffff00"/><rect x="13" y="3" width="1" height="1" fill="#ffff00"/><rect x="12" y="4" width="1" height="1" fill="#ffff00" opacity="0.8"/><rect x="13" y="4" width="1" height="1" fill="#ffff00" opacity="0.8"/><rect x="9" y="17" width="1" height="1" fill="#ccaa00"/><rect x="10" y="17" width="1" height="1" fill="#ccaa00" opacity="0.6"/><rect x="11" y="18" width="1" height="1" fill="#ccaa00"/><rect x="12" y="18" width="1" height="1" fill="#ccaa00"/><rect x="13" y="17" width="1" height="1" fill="#ccaa00" opacity="0.6"/><rect x="14" y="17" width="1" height="1" fill="#ccaa00"/><rect x="11" y="19" width="1" height="1" fill="#ffffff" opacity="0.8"/><rect x="1" y="21" width="22" height="3" rx="0.5" fill="#000000" opacity="0.4"/><text x="12" y="23.2" text-anchor="middle" fill="#aaaacc" font-family="monospace" font-size="2" font-weight="bold">agent4.claw</text></svg>